<svg xmlns="http://www.w3.org/2000/svg" width="45.828" height="38" viewBox="0 0 45.828 38">
    <defs>
        <style>
            .prefix__cls-1{fill:#fff}
        </style>
    </defs>
    <g id="prefix__group_1_" data-name="group (1)" transform="translate(0 -43.729)">
        <g id="prefix__Group_56" data-name="Group 56" transform="translate(0 60.373)">
            <g id="prefix__Group_55" data-name="Group 55">
                <path id="prefix__Path_34" d="M39.115 233.124h-4.486a6.7 6.7 0 0 0-1.764.237 6.719 6.719 0 0 0-5.986-3.68h-7.93a6.719 6.719 0 0 0-5.986 3.68 6.7 6.7 0 0 0-1.764-.237H6.713A6.721 6.721 0 0 0 0 239.837v7.171a4.032 4.032 0 0 0 4.028 4.028H41.8a4.032 4.032 0 0 0 4.028-4.028v-7.171a6.721 6.721 0 0 0-6.713-6.713zm-26.879 3.27v11.957H4.028a1.344 1.344 0 0 1-1.343-1.343v-7.171a4.032 4.032 0 0 1 4.028-4.028H11.2a4.016 4.016 0 0 1 1.053.141c-.01.15-.017.294-.017.443zm18.671 11.957H14.922v-11.958a4.032 4.032 0 0 1 4.028-4.028h7.93a4.032 4.032 0 0 1 4.028 4.028zm12.236-1.343a1.344 1.344 0 0 1-1.343 1.343h-8.208v-11.958c0-.149-.007-.3-.016-.444a4.02 4.02 0 0 1 1.053-.141h4.486a4.032 4.032 0 0 1 4.028 4.028z" class="prefix__cls-1" data-name="Path 34" transform="translate(0 -229.68)"/>
            </g>
        </g>
        <g id="prefix__Group_58" data-name="Group 58" transform="translate(2.991 51.138)">
            <g id="prefix__Group_57" data-name="Group 57">
                <path id="prefix__Path_35" d="M39.379 126.5a5.965 5.965 0 1 0 5.965 5.965 5.972 5.972 0 0 0-5.965-5.965zm0 9.245a3.28 3.28 0 1 1 3.28-3.28 3.284 3.284 0 0 1-3.28 3.284z" class="prefix__cls-1" data-name="Path 35" transform="translate(-33.414 -126.504)"/>
            </g>
        </g>
        <g id="prefix__Group_60" data-name="Group 60" transform="translate(14.945 43.729)">
            <g id="prefix__Group_59" data-name="Group 59">
                <path id="prefix__Path_36" d="M174.932 43.729a7.97 7.97 0 1 0 7.97 7.97 7.979 7.979 0 0 0-7.97-7.97zm0 13.254a5.284 5.284 0 1 1 5.284-5.284 5.29 5.29 0 0 1-5.284 5.284z" class="prefix__cls-1" data-name="Path 36" transform="translate(-166.962 -43.729)"/>
            </g>
        </g>
        <g id="prefix__Group_62" data-name="Group 62" transform="translate(30.907 51.138)">
            <g id="prefix__Group_61" data-name="Group 61">
                <path id="prefix__Path_37" d="M351.259 126.5a5.965 5.965 0 1 0 5.965 5.965 5.972 5.972 0 0 0-5.965-5.965zm0 9.245a3.28 3.28 0 1 1 3.28-3.28 3.284 3.284 0 0 1-3.28 3.284z" class="prefix__cls-1" data-name="Path 37" transform="translate(-345.294 -126.504)"/>
            </g>
        </g>
    </g>
</svg>
