<svg xmlns="http://www.w3.org/2000/svg" width="33" height="35.862" viewBox="0 0 33 35.862">
    <g id="prefix__hammer" transform="translate(-20.432)">
        <g id="prefix__Group_53" data-name="Group 53" transform="translate(20.432)">
            <path id="prefix__Path_3" d="M51.589 9.66L41.929 0l-5.944 5.944 4.953 4.956-7.14 7.14-.743-.743-11.393 11.392a4.2 4.2 0 0 0 5.944 5.944L39 23.24l-.743-.743 7.883-7.883 4.706 4.706.743-.743a6.312 6.312 0 0 0 0-8.917zM26.12 33.147a2.1 2.1 0 1 1-2.972-2.972l9.907-9.907 2.972 2.972zm24.632-16.894l-4.612-4.612-9.37 9.37-1.486-1.486 9.369-9.369-2.971-2.973-.743.743-1.982-1.982 2.972-2.972 1.981 1.981-.743.743 2.973 2.973.743-.743 3.22 3.22a4.211 4.211 0 0 1 .649 5.107z" data-name="Path 3" transform="translate(-20.432)" style="fill:#fff"/>
        </g>
    </g>
</svg>
