<svg width="40" height="60" viewBox="0 0 40 60" fill="none" xmlns="http://www.w3.org/2000/svg">
<path d="M36.2825 17.7975C38.6775 14.94 40 11.355 40 7.7075V0H0V7.7075C0 11.355 1.32 14.9375 3.7175 17.795L11.435 26.995C12.85 28.6875 12.86 31.0575 11.4575 32.76L3.6325 42.245C1.29 45.085 0 48.6325 0 52.2325V60H40V52.2325C40 48.6325 38.7075 45.0875 36.3675 42.2475L28.5425 32.7625C27.1375 31.06 27.1475 28.69 28.565 26.9975L36.2825 17.7975ZM35 7.4975C35 10.25 34.0925 12.6225 32.45 14.5825L30.005 17.5H9.995L7.55 14.5825C5.9 12.62 5 10.2425 5 7.4975H35ZM32.51 45.4275C34.14 47.405 35 49.74 35 52.5H32.3475C27.5 47.5 20 47.5 20 47.5C20 47.5 12.5 47.5 7.6525 52.5H5C5 49.74 5.86 47.4025 7.49 45.4275L15.3125 35.945C16.1675 34.9075 16.74 33.73 17.09 32.5025H17.5V35.0025H22.5V32.5025H22.9075C23.26 33.73 23.83 34.9075 24.685 35.9425L32.51 45.4275ZM17.5 42.5H22.5V45H17.5V42.5ZM17.5 37.5H22.5V40H17.5V37.5Z" fill="black"/>
</svg>
