<svg width="220" height="77" viewBox="0 0 220 77" fill="none" xmlns="http://www.w3.org/2000/svg">
<path d="M95.7481 18.7202V24.111H89.2507V43.084H82.4767V24.111H76.0479V18.7202H95.7481Z" fill="white"/>
<path d="M116.526 34.3006H103.706C103.774 35.3597 104.069 36.1502 104.586 36.6666C105.105 37.1856 105.766 37.4439 106.572 37.4439C107.7 37.4439 108.509 36.938 108.991 35.9236H116.215C115.915 37.2594 115.335 38.453 114.471 39.5016C113.607 40.5503 112.519 41.3723 111.207 41.973C109.895 42.5711 108.443 42.8715 106.851 42.8715C104.939 42.8715 103.239 42.4684 101.753 41.6621C100.267 40.8559 99.1026 39.7045 98.2621 38.2053C97.4216 36.7088 97 34.9461 97 32.9173C97 30.8912 97.4137 29.1338 98.2436 27.6478C99.0736 26.1617 100.23 25.0156 101.716 24.2094C103.202 23.4031 104.912 23 106.849 23C108.762 23 110.453 23.3926 111.929 24.1751C113.402 24.9576 114.556 26.0827 115.386 27.545C116.215 29.0073 116.629 30.7304 116.629 32.7118C116.632 33.2414 116.598 33.771 116.526 34.3006ZM109.721 31.0176C109.721 30.1877 109.444 29.5369 108.891 29.0653C108.337 28.5936 107.647 28.3565 106.817 28.3565C105.987 28.3565 105.307 28.5805 104.778 29.031C104.248 29.4816 103.903 30.1429 103.742 31.0176H109.721Z" fill="white"/>
<path d="M137.565 25.7525C138.877 27.2385 139.535 29.2488 139.535 31.7835V43.084H132.761V32.6819C132.761 31.5753 132.474 30.7058 131.897 30.0735C131.32 29.4412 130.548 29.1223 129.581 29.1223C128.567 29.1223 127.771 29.4385 127.197 30.0735C126.62 30.7085 126.333 31.578 126.333 32.6819V43.084H119.559V23.6973H126.333V26.4612C126.931 25.5865 127.737 24.8777 128.751 24.335C129.766 23.7948 130.928 23.5234 132.242 23.5234C134.477 23.5234 136.25 24.2691 137.565 25.7525Z" fill="white"/>
<path d="M143.248 28.121C143.973 26.6244 144.971 25.4704 146.238 24.6642C147.506 23.8579 148.91 23.4548 150.454 23.4548C151.698 23.4548 152.81 23.713 153.79 24.2321C154.77 24.7511 155.534 25.4599 156.087 26.3583V17.5107H162.896V43.0839H156.087V40.3885C155.558 41.287 154.809 42.001 153.84 42.5306C152.873 43.0602 151.732 43.3263 150.417 43.3263C148.873 43.3263 147.474 42.9232 146.217 42.1169C144.961 41.3107 143.97 40.154 143.245 38.6443C142.521 37.1346 142.157 35.3798 142.157 33.3748C142.16 31.3697 142.523 29.6176 143.248 28.121ZM155.102 30.437C154.422 29.7229 153.587 29.3646 152.596 29.3646C151.582 29.3646 150.741 29.715 150.072 30.4185C149.403 31.122 149.071 32.1074 149.071 33.3721C149.071 34.6157 149.405 35.6011 150.072 36.3257C150.741 37.0503 151.582 37.4139 152.596 37.4139C153.587 37.4139 154.422 37.0582 155.102 36.3415C155.782 35.6275 156.122 34.6368 156.122 33.3695C156.122 32.1285 155.782 31.151 155.102 30.437Z" fill="white"/>
<path d="M185.186 34.7556H172.365C172.433 35.8148 172.728 36.6053 173.245 37.1217C173.764 37.6407 174.425 37.8989 175.232 37.8989C176.359 37.8989 177.168 37.393 177.65 36.3787H184.872C184.572 37.7145 183.992 38.908 183.128 39.9567C182.264 41.0053 181.176 41.8274 179.863 42.4281C178.551 43.0262 177.1 43.3266 175.508 43.3266C173.595 43.3266 171.896 42.9235 170.41 42.1172C168.924 41.311 167.759 40.1596 166.919 38.6604C166.078 37.1638 165.657 35.4012 165.657 33.3724C165.657 31.3462 166.07 29.5888 166.9 28.1028C167.73 26.6168 168.887 25.4707 170.373 24.6644C171.859 23.8582 173.569 23.4551 175.506 23.4551C177.418 23.4551 179.11 23.8477 180.585 24.6302C182.058 25.4127 183.212 26.5378 184.042 28.0001C184.872 29.4624 185.286 31.1855 185.286 33.1669C185.288 33.6965 185.254 34.2261 185.186 34.7556ZM178.377 31.4727C178.377 30.6428 178.101 29.992 177.547 29.5203C176.994 29.0487 176.304 28.8116 175.474 28.8116C174.644 28.8116 173.964 29.0355 173.435 29.4861C172.905 29.9366 172.56 30.598 172.399 31.4727H178.377Z" fill="white"/>
<path d="M197.593 24.4928C198.676 23.8473 199.84 23.5259 201.084 23.5259V30.7478H199.184C197.709 30.7478 196.615 31.035 195.901 31.612C195.187 32.189 194.829 33.1902 194.829 34.6183V43.0865H188.055V23.6998H194.829V27.1197C195.588 26.0131 196.507 25.1384 197.593 24.4928Z" fill="white"/>
<path d="M207.078 42.4466C205.708 41.859 204.625 41.0528 203.829 40.0278C203.034 39.0029 202.591 37.8462 202.499 36.5552H209.065C209.157 37.177 209.444 37.6618 209.929 38.007C210.414 38.3521 211.012 38.526 211.726 38.526C212.279 38.526 212.716 38.4101 213.038 38.1809C213.359 37.9516 213.523 37.6513 213.523 37.2824C213.523 36.7976 213.257 36.4419 212.727 36.21C212.197 35.9808 211.323 35.7252 210.1 35.4486C208.717 35.1719 207.565 34.861 206.643 34.5159C205.721 34.1707 204.92 33.6069 204.24 32.8217C203.561 32.0392 203.221 30.98 203.221 29.6415C203.221 28.4901 203.532 27.4468 204.153 26.5141C204.775 25.5813 205.692 24.8383 206.901 24.285C208.111 23.7317 209.568 23.4551 211.273 23.4551C213.807 23.4551 215.799 24.0769 217.251 25.3205C218.703 26.5641 219.543 28.2003 219.775 30.2291H213.657C213.541 29.6073 213.27 29.1304 212.846 28.7958C212.419 28.4612 211.85 28.2952 211.136 28.2952C210.582 28.2952 210.161 28.3979 209.874 28.6061C209.586 28.8142 209.441 29.1014 209.441 29.4703C209.441 29.9314 209.705 30.2818 210.237 30.5242C210.767 30.7666 211.62 31.0143 212.795 31.2672C214.2 31.5676 215.37 31.9022 216.302 32.2684C217.235 32.6373 218.052 33.2301 218.755 34.0469C219.459 34.8637 219.809 35.9782 219.809 37.3825C219.809 38.5128 219.48 39.5246 218.824 40.4231C218.168 41.3215 217.235 42.0303 216.026 42.5493C214.816 43.0684 213.394 43.3266 211.757 43.3266C210.008 43.3266 208.448 43.0341 207.078 42.4466Z" fill="white"/>
<path d="M82.0131 51.0622C82.6903 49.6631 83.6177 48.5855 84.7928 47.832C85.9653 47.0784 87.2748 46.7017 88.7186 46.7017C89.9675 46.7017 91.0451 46.9493 91.9489 47.4447C92.8526 47.94 93.5534 48.6066 94.0488 49.4471V46.9282H100.38V65.0529H94.0488V62.534C93.5534 63.3745 92.8473 64.0411 91.9331 64.5365C91.0162 65.0318 89.9464 65.2794 88.7186 65.2794C87.2748 65.2794 85.9679 64.9027 84.7928 64.1491C83.6177 63.3956 82.6929 62.3127 82.0131 60.9031C81.336 59.4935 80.9961 57.8494 80.9961 55.9761C80.9961 54.1001 81.336 52.4639 82.0131 51.0622ZM93.095 53.228C92.46 52.5614 91.6775 52.2268 90.7527 52.2268C89.8042 52.2268 89.019 52.5561 88.3946 53.2122C87.7701 53.8709 87.4566 54.7904 87.4566 55.9734C87.4566 57.1354 87.7675 58.0575 88.3946 58.7347C89.019 59.4144 89.8042 59.7517 90.7527 59.7517C91.6775 59.7517 92.46 59.4171 93.095 58.7505C93.73 58.0839 94.0488 57.1564 94.0488 55.9708C94.0488 54.8115 93.73 53.8946 93.095 53.228Z" fill="white"/>
<path d="M110.008 59.7859H117.73V65.0529H103.031V60.0441L110.234 52.1925H103.094V46.9282H117.469V51.9343L110.008 59.7859Z" fill="white"/>
<path d="M52.9674 3.04579C50.4749 5.55146 47.9824 8.05451 45.4899 10.5602C36.5264 19.5711 27.5603 28.5821 18.5967 37.593C16.1042 40.0987 13.6117 42.6043 11.1192 45.1074C9.36711 41.1658 8.38961 36.8052 8.38961 32.2207C8.38961 14.6652 22.6727 0.379395 40.2309 0.379395C44.7575 0.382029 49.0627 1.33318 52.9674 3.04579ZM60.4686 7.65929C58.237 9.94891 56.0053 12.2385 53.771 14.5282C49.8531 18.5488 45.9378 22.5669 42.0199 26.5849C47.9139 32.0758 53.8053 37.5667 59.7019 43.0549C62.0785 45.2681 64.4524 47.4813 66.8316 49.6972C70.1409 44.6753 72.0696 38.6706 72.0696 32.2207C72.0669 22.3455 67.5483 13.5032 60.4686 7.65929ZM16.4362 52.7878C16.4441 52.7957 16.4494 52.8009 16.4573 52.8088C16.6233 52.635 16.7945 52.4637 16.9605 52.2898C16.7866 52.4584 16.6127 52.6244 16.4362 52.7878ZM53.8659 49.8368C47.7769 44.2801 41.6879 38.7259 35.599 33.1692C31.3649 37.5166 27.1255 41.864 22.8888 46.2087C20.9153 48.2375 18.9366 50.2636 16.9605 52.2924C16.7945 52.4637 16.6233 52.635 16.4573 52.8115C16.4494 52.8036 16.4441 52.7983 16.4362 52.7904C16.3466 52.8773 16.2571 52.9617 16.1701 53.046C16.1833 53.0591 16.1912 53.0723 16.2044 53.0855L0.177002 68.9389L6.89305 75.7288L23.5027 59.3009C28.3665 62.3177 34.0971 64.0646 40.2309 64.0646C48.1537 64.0646 55.4125 61.1532 60.9903 56.3474C58.6138 54.1737 56.2398 52.0052 53.8659 49.8368Z" fill="white"/>
</svg>
