<svg width="56" height="60" viewBox="0 0 56 60" fill="none" xmlns="http://www.w3.org/2000/svg">
<path d="M40.5 30C32.2175 30 25.5 36.7175 25.5 45C25.5 53.2825 32.2175 60 40.5 60C48.7825 60 55.5 53.2825 55.5 45C55.5 36.7175 48.7825 30 40.5 30ZM41.75 51.185V52.5H40.5V51.2525C39.205 51.23 37.8675 50.9225 36.75 50.345L37.32 48.29C38.515 48.755 40.105 49.2475 41.35 48.965C42.785 48.64 43.08 47.1625 41.4925 46.4525C40.33 45.91 36.77 45.4475 36.77 42.3975C36.77 40.695 38.07 39.1675 40.5 38.835V37.5H41.75V38.7725C42.655 38.7975 43.67 38.955 44.8025 39.2975L44.35 41.3575C43.39 41.02 42.33 40.715 41.295 40.7775C39.435 40.885 39.27 42.4975 40.57 43.1725C42.71 44.1775 45.5 44.9225 45.5 47.605C45.5025 49.75 43.82 50.8925 41.75 51.185ZM45.81 25.7375C48.64 25.18 51.215 24.1725 53 22.745V24.375C53 25.6225 52.035 26.7625 50.4825 27.695C49.03 26.8525 47.4625 26.195 45.81 25.7375ZM40.5 11.25C47.1825 11.25 53 8.7325 53 5.625C53 2.5175 47.1825 0 40.5 0C33.82 0 28 2.5175 28 5.625C28 8.7325 33.82 11.25 40.5 11.25ZM40.7325 6.2275C39.985 6.0025 37.6975 5.8125 37.6975 4.54C37.6975 3.83 38.5325 3.1975 40.0925 3.0575V2.5H40.895V3.0275C41.48 3.04 42.13 3.1025 42.855 3.2525L42.565 4.1075C42.0125 3.98 41.3975 3.86 40.795 3.86L40.615 3.8625C39.41 3.9125 39.3125 4.58 40.145 4.86C41.5125 5.2825 43.3125 5.59 43.3125 6.71C43.3125 7.6025 42.2275 8.08 40.895 8.2V8.75H40.0925V8.23C39.2725 8.2225 38.4025 8.09 37.6875 7.85L38.055 6.9925C38.665 7.15 39.435 7.3075 40.125 7.3075L40.645 7.2725C41.5675 7.14 41.7525 6.5225 40.7325 6.2275ZM13 38.75C16.6125 38.75 19.9375 37.9975 22.2625 36.83C23.04 35.105 24.0475 33.5075 25.2575 32.0825C24.13 29.475 18.91 27.5 13 27.5C6.32 27.5 0.5 30.0175 0.5 33.125C0.5 36.2325 6.32 38.75 13 38.75ZM13.2325 33.7275C12.485 33.5025 10.1975 33.3125 10.1975 32.04C10.1975 31.33 11.035 30.6975 12.5925 30.5575V30H13.395V30.5275C13.98 30.54 14.63 30.6025 15.355 30.7525L15.0625 31.6075C14.5125 31.48 13.8975 31.36 13.295 31.36L13.115 31.3625C11.91 31.4125 11.815 32.08 12.645 32.36C14.0125 32.7825 15.8125 33.09 15.8125 34.21C15.8125 35.1025 14.7275 35.58 13.395 35.7V36.25H12.5925V35.73C11.77 35.7225 10.9025 35.59 10.1875 35.35L10.555 34.4925C11.165 34.65 11.935 34.8075 12.625 34.8075L13.145 34.7725C14.065 34.64 14.2525 34.0225 13.2325 33.7275ZM23.24 55.055C20.9425 56.53 17.14 57.5 13 57.5C6.32 57.5 0.5 54.9825 0.5 51.875V50.245C3.365 52.54 8.2725 53.75 13 53.75C16.09 53.75 19.2475 53.2225 21.8725 52.2225C22.255 53.2075 22.7125 54.155 23.24 55.055ZM0.5 45.625V43.9975C3.365 46.29 8.2725 47.5 13 47.5C15.5975 47.5 18.235 47.1225 20.57 46.4125C20.6525 47.585 20.8375 48.7275 21.115 49.8375C18.895 50.705 16.055 51.25 13 51.25C6.32 51.25 0.5 48.7325 0.5 45.625ZM0.5 39.375V37.745C3.365 40.04 8.2725 41.25 13 41.25C15.8175 41.25 18.6875 40.81 21.165 39.9775C20.845 41.21 20.64 42.4825 20.5625 43.7925C18.4275 44.5375 15.805 45 13 45C6.32 45 0.5 42.4825 0.5 39.375ZM28 11.875V10.245C30.865 12.54 35.7725 13.75 40.5 13.75C45.23 13.75 50.135 12.54 53 10.245V11.875C53 14.9825 47.1825 17.5 40.5 17.5C33.82 17.5 28 14.9825 28 11.875ZM28 24.375V22.745C29.7825 24.1725 32.36 25.18 35.19 25.7375C33.5375 26.195 31.9725 26.8525 30.52 27.695C28.965 26.7625 28 25.6225 28 24.375ZM28 18.125V16.4975C30.865 18.79 35.7725 20 40.5 20C45.23 20 50.135 18.79 53 16.4975V18.125C53 21.2325 47.1825 23.75 40.5 23.75C33.82 23.75 28 21.2325 28 18.125Z" fill="black"/>
</svg>
