<svg xmlns="http://www.w3.org/2000/svg" id="prefix__product_1_" width="37.454" height="37.436" data-name="product (1)" viewBox="0 0 37.454 37.436">
    <defs>
        <style>
            .prefix__cls-1{fill:#fff}
        </style>
    </defs>
    <path id="prefix__Path_305" d="M30.451 249.733a7.247 7.247 0 0 1-4.745 2.455 64.926 64.926 0 0 1-6.629-.1c-2.119-.01-4.243.073-6.354.262a1.867 1.867 0 0 1 .677 1.45 1.921 1.921 0 0 1-.545 1.29l-2.066 2.144a1.862 1.862 0 0 1-2.592.112l-7.668-7.389a1.734 1.734 0 0 1-.529-1.3 1.92 1.92 0 0 1 .545-1.29l2.066-2.144a1.843 1.843 0 0 1 2.531-.167 9.624 9.624 0 0 1 3.764-3.268 8.9 8.9 0 0 1 5.861-.662 26.7 26.7 0 0 0 6.809.515c1.8-.064 3.938-.457 5.378.933a2.777 2.777 0 0 1 .409.519l4.489-4.442a3.509 3.509 0 0 1 3.837-.588 2.784 2.784 0 0 1 1.762 2.725 4.971 4.971 0 0 1-1.651 2.876zm4.261-7.08c.549-.594 1.231-1.332 1.259-1.939.069-1.5-2.173-1.92-3.075-1.018l-5.067 5.014a3.071 3.071 0 0 1-.676 1.935c-.721.887-2.267 1.361-4.725 1.45a26.281 26.281 0 0 1-3.247-.1.741.741 0 0 1 .15-1.473 25.123 25.123 0 0 0 3.044.089c2.691-.1 3.434-.664 3.626-.9a1.608 1.608 0 0 0-.085-2.09c-1.058-1.006-2.991-.555-4.287-.509a28.19 28.19 0 0 1-7.185-.549 7.672 7.672 0 0 0-8.216 3.523l5.1 4.914a60.394 60.394 0 0 1 9.862-.314 30.086 30.086 0 0 0 4.375.023 5.771 5.771 0 0 0 3.777-1.958zM1.557 248.89l7.672 7.392a.367.367 0 0 0 .5-.073l2.066-2.144a.362.362 0 0 0 .055-.5l-7.672-7.392a.367.367 0 0 0-.5.073l-2.067 2.144a.362.362 0 0 0-.054.5zm0 0" class="prefix__cls-1" data-name="Path 305" transform="translate(0 -220.386)"/>
    <path id="prefix__Path_306" d="M172.274 19.589h-9.069a1.949 1.949 0 0 1-1.947-1.947v-2.9a.741.741 0 0 1 1.481 0v2.9a.467.467 0 0 0 .466.466h9.069a.467.467 0 0 0 .466-.466V7.063a.467.467 0 0 0-.466-.466h-1.358v1.512a.741.741 0 0 1-1.481 0V6.6h-3.391v1.509a.741.741 0 0 1-1.481 0V6.6h-1.358a.467.467 0 0 0-.466.466v1.653a.741.741 0 0 1-1.481 0V7.063a1.949 1.949 0 0 1 1.947-1.947h1.358v-1.44a3.177 3.177 0 0 1 6.353 0v1.44h1.358a1.949 1.949 0 0 1 1.947 1.947v10.578a1.949 1.949 0 0 1-1.947 1.948zm-2.839-15.913a1.7 1.7 0 0 0-3.391 0v1.44h3.391v-1.44zm0 0" class="prefix__cls-1" data-name="Path 306" transform="translate(-148.563 -.5)"/>
    <path id="prefix__Path_307" d="M222.661 155.3h2.657a.741.741 0 0 1 0 1.481h-2.657a.741.741 0 0 1 0-1.481zm0 0" class="prefix__cls-1" data-name="Path 307" transform="translate(-204.814 -143.977)"/>
    <path id="prefix__Path_308" d="M376.031 147.751h-1.954a.741.741 0 0 1 0-1.481h1.954a.741.741 0 0 1 0 1.481zm0 0" class="prefix__cls-1" data-name="Path 308" transform="translate(-366.602 -135.607)"/>
    <path id="prefix__Path_309" d="M375.288 193.948l1.693-.977a.741.741 0 0 1 .741 1.283l-1.693.977a.741.741 0 0 1-.741-1.283zm0 0" class="prefix__cls-1" data-name="Path 309" transform="translate(-368.054 -178.795)"/>
    <path id="prefix__Path_310" d="M377.35 89.434a.739.739 0 0 1-.37-.1l-1.692-.977a.741.741 0 0 1 .741-1.282l1.693.977a.746.746 0 0 1-.371 1.382zm0 0" class="prefix__cls-1" data-name="Path 310" transform="translate(-368.054 -80.646)"/>
    <path id="prefix__Path_311" d="M86.815 147.751H84.86a.741.741 0 0 1 0-1.481h1.954a.741.741 0 0 1 .001 1.481zm0 0" class="prefix__cls-1" data-name="Path 311" transform="translate(-56.229 -135.607)"/>
    <path id="prefix__Path_312" d="M86.824 192.971l1.692.977a.741.741 0 0 1-.74 1.283l-1.693-.977a.741.741 0 0 1 .741-1.283zm0 0" class="prefix__cls-1" data-name="Path 312" transform="translate(-57.692 -178.794)"/>
    <path id="prefix__Path_313" d="M88.506 88.357l-1.692.977a.741.741 0 0 1-.741-1.282l1.693-.977a.741.741 0 0 1 .74 1.282zm0 0" class="prefix__cls-1" data-name="Path 313" transform="translate(-57.682 -80.645)"/>
    <path id="prefix__Path_314" d="M280.259 358.294a.74.74 0 1 1 .3.918.746.746 0 0 1-.3-.918zm0 0" class="prefix__cls-1" data-name="Path 314" transform="translate(-264.726 -331.706)"/>
    <path id="prefix__Path_315" d="M318.54 143.529a.74.74 0 1 1-.28.882.746.746 0 0 1 .28-.882zm0 0" class="prefix__cls-1" data-name="Path 315" transform="translate(-305.516 -132.953)"/>
</svg>
